<?xml version="1.0" encoding="utf-8"?>
<!-- Generator: Adobe Illustrator 16.0.0, SVG Export Plug-In . SVG Version: 6.00 Build 0)  -->
<!DOCTYPE svg PUBLIC "-//W3C//DTD SVG 1.1//EN" "http://www.w3.org/Graphics/SVG/1.1/DTD/svg11.dtd">
<svg version="1.1" id="Capa_1" xmlns="http://www.w3.org/2000/svg" xmlns:xlink="http://www.w3.org/1999/xlink" x="0px" y="0px"
	 width="64px" height="64px" viewBox="32 0 64 64" enable-background="new 32 0 64 64" xml:space="preserve">
<path fill="#18407E" d="M96,53.334C96,59.2,91.2,64,85.334,64H42.667C36.8,64,32,59.2,32,53.334V10.667C32,4.8,36.8,0,42.667,0
	h42.667C91.2,0,96,4.8,96,10.667V53.334z"/>
<g>
	<rect x="37.343" y="14.69" fill="none" stroke="#FFFFFF" stroke-width="1.2489" width="53.456" height="34.589"/>
	<polyline fill="none" stroke="#FFFFFF" stroke-width="1.2489" points="90.482,14.976 73.102,40.334 90.625,40.334 	"/>
	<g id="Ala_4_">
		<path fill="none" stroke="#FFFFFF" stroke-width="1.2489" d="M37.201,24.378L77.58,24.42c0,0,0.605,3.901-2.91,3.235
			c-0.258-0.067-0.352,3.614-4.846,3.561c-0.746-0.074,0.854,3.15-4.699,2.849c-0.602-0.031,0.473,2.994-5.841,3.276
			c-0.538,0.025-0.157,3.472-4.987,3.423c-0.551-0.009-0.215,2.293-4.13,3.133c-0.645,0.139-1.118,2.805-2.993,2.85
			c-0.486,0.012,0.301,0.506-2.563,2.564"/>
		<line fill="none" stroke="#FFFFFF" stroke-width="1.2489" x1="74.67" y1="27.656" x2="47.307" y2="27.656"/>
		<line fill="none" stroke="#FFFFFF" stroke-width="1.2489" x1="69.689" y1="31.255" x2="46.774" y2="31.255"/>
		<line fill="none" stroke="#FFFFFF" stroke-width="1.2489" x1="65.125" y1="34.064" x2="45.688" y2="34.064"/>
		<line fill="none" stroke="#FFFFFF" stroke-width="1.2489" x1="59.284" y1="37.342" x2="44.855" y2="37.342"/>
		<line fill="none" stroke="#FFFFFF" stroke-width="1.2489" x1="54.578" y1="40.756" x2="43.075" y2="40.756"/>
		<line fill="none" stroke="#FFFFFF" stroke-width="1.2489" x1="50.167" y1="43.896" x2="39.631" y2="43.896"/>
		<line fill="none" stroke="#FFFFFF" stroke-width="1.2489" x1="47.173" y1="46.746" x2="37.318" y2="46.746"/>
	</g>
</g>
</svg>
